<svg width="16" height="9" viewBox="0 0 16 9" fill="none" xmlns="http://www.w3.org/2000/svg">
<path d="M15.7969 0.25C15.6511 0.09375 15.4714 0.0130205 15.2579 0.0078125C15.0443 0.00260448 14.8646 0.072917 14.7188 0.21875L8.00006 6.57812L1.28132 0.21875C1.13548 0.072917 0.955794 0.00260448 0.742253 0.0078125C0.528711 0.0130205 0.349023 0.09375 0.20319 0.25C0.0573568 0.40625 -0.0103516 0.588542 6.51041e-05 0.796875C0.0104818 1.00521 0.0886068 1.18229 0.23444 1.32812L7.46882 8.1875C7.54173 8.25 7.62507 8.29948 7.71882 8.33594C7.81257 8.3724 7.90631 8.39062 8.00006 8.39062C8.09381 8.39062 8.18496 8.3724 8.2735 8.33594C8.36204 8.29948 8.44798 8.25 8.53131 8.1875L15.7657 1.32812C15.9115 1.18229 15.9896 1.00521 16.0001 0.796875C16.0105 0.588542 15.9428 0.40625 15.7969 0.25Z" fill="#222222"/>
</svg>
